<?xml version="1.0" encoding="utf-8"?>
<!-- Generator: Adobe Illustrator 24.3.0, SVG Export Plug-In . SVG Version: 6.00 Build 0)  -->
<svg version="1.1" id="Layer_1" xmlns="http://www.w3.org/2000/svg" xmlns:xlink="http://www.w3.org/1999/xlink" x="0px" y="0px"
	 viewBox="0 0 500 500" style="enable-background:new 0 0 500 500;" xml:space="preserve">
<style type="text/css">
	.st0{fill:#6247AA;}
</style>
<path class="st0" d="M223.31,242.11c0-10.98-0.03-21.95,0.04-32.93c0.01-1.16,0.38-2.44,0.95-3.46
	c9.38-16.72,18.63-33.52,28.32-50.06c5.45-9.31,13.73-14.05,24.89-12.63c7.45,0.95,12.55,5.34,16.53,11.31
	c8.39,12.56,16.68,25.2,25.1,37.74c14.67,21.86,29.41,43.68,44.12,65.51c19.17,28.43,38.36,56.86,57.52,85.29
	c4,5.93,8.04,11.83,11.88,17.87c8.89,13.98,8.24,28.5-1.82,41.66c-7.21,9.43-17.03,14.58-28.6,15.91
	c-7.56,0.86-15.26,0.65-22.89,0.68c-30.02,0.11-60.05,0.15-90.07,0.13c-0.8,0-1.89-0.76-2.34-1.48
	c-7.42-11.85-14.79-23.73-22.12-35.64c-16.11-26.16-32.19-52.34-48.29-78.51c-4.59-7.47-9.19-14.94-13.86-22.54
	c1.3-0.54,2.38-1.08,3.52-1.46c4.46-1.46,8.12-4.08,11.08-7.67c9.78-11.86,19.52-23.74,29.27-35.62c3.61-4.4,7.18-8.83,10.75-13.26
	c0.3-0.37,0.47-0.85,0.7-1.28c0.23,0.1,0.47,0.2,0.7,0.3c10.95,30.07,21.91,60.13,32.86,90.2c0.21,0.06,0.42,0.12,0.62,0.18
	c6.55-13.34,13.1-26.68,19.94-40.6c22.16,41.51,44.04,82.47,65.92,123.44c0.13-0.03,0.25-0.05,0.38-0.08
	c-0.36-6.6-0.73-13.2-1.06-19.81c-0.44-8.61-0.86-17.21-1.27-25.82c-0.33-6.98-0.62-13.96-0.99-20.94c-0.04-0.77-0.32-1.6-0.72-2.27
	c-12.49-20.74-25.05-41.45-37.53-62.2c-14.99-24.93-29.92-49.91-44.88-74.86c-3.93-6.55-8.13-12.95-11.75-19.66
	c-3.74-6.93-11.27-6.06-14.82,0.43c-8.84,16.17-18.08,32.11-27.2,48.13c-4.61,8.09-9.31,16.14-13.97,24.21
	C223.92,242.24,223.61,242.17,223.31,242.11z"/>
<path d="M255.55,419.22c-10.94,0-21.49,0-32.03,0c-32.06-0.01-64.11,0-96.17-0.03c-8.05-0.01-16.11-0.08-24.16-0.2
	c-7-0.1-13.56-2.13-20.42-4.95c2.39-3.77,4.65-7.38,6.95-10.96c15.07-23.44,30.13-46.89,45.25-70.29
	c7.14-11.06,14.4-22.03,21.62-33.04c5.43-8.28,16.85-8.45,22.5-0.14c5.57,8.2,10.9,16.56,16.24,24.91
	c19.4,30.32,38.76,60.67,58.13,91.01C254.17,416.66,254.78,417.86,255.55,419.22z"/>
<path d="M179.49,142.18c3.01-6.41,5.95-12.8,9.03-19.13c1.12-2.31,2.24-4.77,3.94-6.64c3.36-3.7,8.99-4.09,12.86-1.33
	c3.91,2.79,5.42,8.16,3.35,12.58c-4.54,9.7-9.07,19.41-13.79,29.02c-3.33,6.78-9.95,9.88-17.29,7.88
	c-6.17-1.68-12.17-4.01-18.25-6.06c-1.13-0.38-2.25-0.81-3.52-1.27c0,11.26,0,22.23,0,33.64c1.01,0,1.94,0,2.87,0
	c11.23-0.04,22.46-0.08,33.69-0.14c8.57-0.05,15.35,4.92,17.82,13.16c0.27,0.91,0.33,1.92,0.33,2.88
	c0.06,16.28,0.09,32.55,0.14,48.83c0.02,6.44-6.78,11.72-13.4,10.37c-5.87-1.2-9.49-5.43-9.55-11.5
	c-0.1-10.42-0.06-20.83-0.08-31.25c0-2.68,0-5.35,0-8.37c-1,0-1.78,0-2.56,0c-10.58,0.02-21.16-0.06-31.74,0.12
	c-2.6,0.05-5.42,0.48-7.74,1.58c-10.62,2.44-20.26-3.49-20.11-13.4c0.27-17.74,0.14-35.48,0-53.22
	c-0.13-15.13,12.56-21.16,23.7-17.8c9.78,2.96,19.39,6.46,29.08,9.72C178.59,141.95,178.89,142.02,179.49,142.18z"/>
<path d="M175.19,227.39c0,5.89,0,11.47,0,16.72c-3.25-0.27-6.47-0.95-9.62-0.72c-5.2,0.38-9.01,3.35-11.78,7.71
	c-7.8,12.27-15.63,24.51-23.41,36.79c-21.34,33.67-42.66,67.36-64,101.03c-0.82,1.3-1.73,2.54-3.09,4.52
	c-1.01-3.95-2.08-7.27-2.7-10.67c-3.05-16.84,0.44-32.17,9.6-46.72c11-17.44,21.17-35.41,31.68-53.16
	c7.44-12.58,14.87-25.18,22.25-37.79c5.6-9.56,13.87-15.49,24.71-17.24c5.25-0.85,10.71-0.38,16.07-0.46
	C168.23,227.35,171.57,227.39,175.19,227.39z"/>
<path d="M156.32,122.74c-10.3,0.13-19.11-8.41-19.16-18.7c-0.07-13.02,8.29-19.93,19.15-20.46c10.95-0.53,19.86,8.29,19.98,19.22
	C176.41,114.27,168.06,122.6,156.32,122.74z"/>
<path d="M203.16,109.67c-7.5-1.12-12.51,1.47-15.72,7.79c0-5.13-0.04-10.26,0.07-15.39c0.01-0.5,0.85-1.16,1.45-1.42
	c0.62-0.27,1.42-0.15,2.25-0.2c0.5-1.99,0.99-3.92,1.47-5.81c3.24,0,6.31-0.09,9.37,0.03c2.9,0.11,6.02-0.89,8.66,1.56
	c-1.78,1.39-3.37,3.15-5.35,4.01c-1.83,0.79-1.85,1.89-1.89,3.37C203.42,105.63,203.27,107.64,203.16,109.67z"/>
<path d="M224.11,100.82c3.07-0.41,3.07-0.41,3.68-4.16c3.49,0,7.01,0,10.8,0c-2.36,4.08-4.51,7.95-6.83,11.72
	c-0.79,1.29-0.82,2.27-0.03,3.53c1.86,2.95,3.63,5.96,5.4,8.97c0.51,0.87,0.88,1.82,1.34,2.77c-3.84,0-7.38,0-10.98,0
	c-0.21-1.12-0.37-1.97-0.55-2.98c-0.85-0.05-1.7-0.11-2.84-0.18C224.11,113.86,224.11,107.33,224.11,100.82z"/>
<path d="M219.74,100.56c0,6.97,0,13.62,0,20.38c-2.31,0-4.39,0-6.61,0c-0.73-3.58-2.49-6.58-5.31-8.96
	c-0.42-0.35-0.69-1.05-0.75-1.62c-0.12-1.13-0.03-2.27-0.05-3.41c-0.07-3.62,2.56-6.36,6.16-6.38
	C215.35,100.55,217.53,100.56,219.74,100.56z"/>
</svg>
